<mxfile host="app.diagrams.net" modified="2021-07-30T01:53:29.246Z" agent="5.0 (Windows NT 10.0; Win64; x64) AppleWebKit/537.36 (KHTML, like Gecko) Chrome/91.0.4472.164 Safari/537.36" etag="oD-ZB_53PNPrmEgBlQTH" version="14.9.3" type="github">
  <diagram id="5-Zb1E_tfO7IGc3s9oIN" name="Page-1">
    <mxGraphModel dx="782" dy="468" grid="1" gridSize="10" guides="1" tooltips="1" connect="1" arrows="1" fold="1" page="1" pageScale="1" pageWidth="1169" pageHeight="827" math="0" shadow="0">
      <root>
        <mxCell id="0" />
        <mxCell id="1" parent="0" />
        <mxCell id="QeShVC-pbAS8bmlyja4_-19" value="" style="edgeStyle=orthogonalEdgeStyle;rounded=0;orthogonalLoop=1;jettySize=auto;html=1;" edge="1" parent="1" source="QeShVC-pbAS8bmlyja4_-4" target="QeShVC-pbAS8bmlyja4_-13">
          <mxGeometry relative="1" as="geometry" />
        </mxCell>
        <mxCell id="QeShVC-pbAS8bmlyja4_-4" value="Keepalived&lt;br&gt;192.168.0.111" style="rounded=1;whiteSpace=wrap;html=1;fillColor=#0050ef;strokeColor=#001DBC;fontColor=#ffffff;" vertex="1" parent="1">
          <mxGeometry x="280" y="126" width="160" height="50" as="geometry" />
        </mxCell>
        <mxCell id="QeShVC-pbAS8bmlyja4_-6" value="VRRP" style="edgeStyle=orthogonalEdgeStyle;rounded=0;orthogonalLoop=1;jettySize=auto;html=1;startArrow=classic;startFill=1;dashed=1;" edge="1" parent="1" source="QeShVC-pbAS8bmlyja4_-7" target="QeShVC-pbAS8bmlyja4_-4">
          <mxGeometry relative="1" as="geometry" />
        </mxCell>
        <mxCell id="QeShVC-pbAS8bmlyja4_-20" value="" style="edgeStyle=orthogonalEdgeStyle;rounded=0;orthogonalLoop=1;jettySize=auto;html=1;" edge="1" parent="1" source="QeShVC-pbAS8bmlyja4_-7" target="QeShVC-pbAS8bmlyja4_-14">
          <mxGeometry relative="1" as="geometry" />
        </mxCell>
        <mxCell id="QeShVC-pbAS8bmlyja4_-7" value="Keepalived&lt;br&gt;192.168.0.112" style="rounded=1;whiteSpace=wrap;html=1;fillColor=#e51400;strokeColor=#B20000;fontColor=#ffffff;" vertex="1" parent="1">
          <mxGeometry x="280" y="265" width="160" height="50" as="geometry" />
        </mxCell>
        <mxCell id="QeShVC-pbAS8bmlyja4_-9" value="VIP&lt;br&gt;192.168.0.110" style="rounded=1;whiteSpace=wrap;html=1;" vertex="1" parent="1">
          <mxGeometry x="58" y="199" width="140" height="40" as="geometry" />
        </mxCell>
        <mxCell id="QeShVC-pbAS8bmlyja4_-10" value="VIP抢占映射到102" style="endArrow=classic;html=1;exitX=0;exitY=0.75;exitDx=0;exitDy=0;entryX=1;entryY=0.5;entryDx=0;entryDy=0;fillColor=#e51400;strokeColor=#B20000;fontColor=#FF0000;" edge="1" parent="1" source="QeShVC-pbAS8bmlyja4_-7" target="QeShVC-pbAS8bmlyja4_-9">
          <mxGeometry width="50" height="50" relative="1" as="geometry">
            <mxPoint x="270" y="230" as="sourcePoint" />
            <mxPoint x="320" y="180" as="targetPoint" />
          </mxGeometry>
        </mxCell>
        <mxCell id="QeShVC-pbAS8bmlyja4_-11" value="VIP抢占映射到101" style="endArrow=classic;html=1;exitX=0;exitY=0.5;exitDx=0;exitDy=0;entryX=1;entryY=0.5;entryDx=0;entryDy=0;fillColor=#0050ef;strokeColor=#001DBC;fontColor=#0000CC;" edge="1" parent="1" source="QeShVC-pbAS8bmlyja4_-4" target="QeShVC-pbAS8bmlyja4_-9">
          <mxGeometry width="50" height="50" relative="1" as="geometry">
            <mxPoint x="270" y="170" as="sourcePoint" />
            <mxPoint x="260" y="220" as="targetPoint" />
          </mxGeometry>
        </mxCell>
        <mxCell id="QeShVC-pbAS8bmlyja4_-12" value="http" style="endArrow=classic;html=1;entryX=0;entryY=0.5;entryDx=0;entryDy=0;" edge="1" parent="1">
          <mxGeometry width="50" height="50" relative="1" as="geometry">
            <mxPoint x="10" y="219" as="sourcePoint" />
            <mxPoint x="58" y="219" as="targetPoint" />
          </mxGeometry>
        </mxCell>
        <mxCell id="QeShVC-pbAS8bmlyja4_-13" value="&lt;span style=&quot;color: rgb(255 , 255 , 255)&quot;&gt;nginx&lt;/span&gt;&lt;br style=&quot;color: rgb(255 , 255 , 255)&quot;&gt;&lt;span style=&quot;color: rgb(255 , 255 , 255)&quot;&gt;192.168.0.111&lt;/span&gt;" style="rounded=1;whiteSpace=wrap;html=1;fillColor=#0050ef;strokeColor=#001DBC;fontColor=#ffffff;" vertex="1" parent="1">
          <mxGeometry x="520" y="124" width="160" height="54" as="geometry" />
        </mxCell>
        <mxCell id="QeShVC-pbAS8bmlyja4_-14" value="&lt;span&gt;nginx&lt;/span&gt;&lt;br&gt;&lt;span&gt;192.168.0.112&lt;/span&gt;" style="rounded=1;whiteSpace=wrap;html=1;fillColor=#e51400;strokeColor=#B20000;fontColor=#ffffff;" vertex="1" parent="1">
          <mxGeometry x="520" y="262.5" width="160" height="55" as="geometry" />
        </mxCell>
      </root>
    </mxGraphModel>
  </diagram>
</mxfile>
